<svg width="40" height="50" viewBox="0 0 40 50" fill="none" xmlns="http://www.w3.org/2000/svg">
<g clip-path="url(#clip0_1086_4)">
<path d="M3.24851 23.035C1.40603 25.5677 0.30005 28.5607 0.0529343 31.683C-0.194181 34.8052 0.427194 37.9349 1.84832 40.726C3.26945 43.517 5.43493 45.8605 8.10522 47.4972C10.7755 49.134 13.8465 50.0002 16.9785 50H23.0185C26.1505 50.0002 29.2215 49.134 31.8918 47.4972C34.5621 45.8605 36.7276 43.517 38.1487 40.726C39.5698 37.9349 40.1912 34.8052 39.9441 31.683C39.697 28.5607 38.591 25.5677 36.7485 23.035L19.9985 0L3.24851 23.035ZM18.1135 43.125C15.7348 43.1272 13.4004 42.4817 11.3607 41.2577C9.32108 40.0338 7.65319 38.2775 6.53601 36.1775C6.22372 35.592 6.15679 34.9065 6.34995 34.2717C6.54312 33.6369 6.98054 33.1048 7.56601 32.7925C8.15148 32.4802 8.83702 32.4133 9.47183 32.6064C10.1066 32.7996 10.6387 33.237 10.951 33.8225C11.641 35.123 12.6724 36.2108 13.9345 36.9689C15.1965 37.727 16.6413 38.1267 18.1135 38.125C18.7766 38.125 19.4124 38.3884 19.8813 38.8572C20.3501 39.3261 20.6135 39.962 20.6135 40.625C20.6135 41.288 20.3501 41.9239 19.8813 42.3928C19.4124 42.8616 18.7766 43.125 18.1135 43.125Z" fill="#FFB032"/>
</g>
<defs>
<clipPath id="clip0_1086_4">
<rect width="40" height="50" fill="white"/>
</clipPath>
</defs>
</svg>
