<svg width="60" height="46" viewBox="0 0 60 46" fill="none" xmlns="http://www.w3.org/2000/svg">
<g clip-path="url(#clip0_1096_10)">
<path fill-rule="evenodd" clip-rule="evenodd" d="M0 41.75L11.25 45.5L22.5 34.25H37.5L48.75 45.5L60 41.75L57.18 10.7315C56.6535 4.93685 51.795 0.5 45.9765 0.5H14.0236C8.20511 0.5 3.34665 4.93685 2.81986 10.7315L0 41.75ZM45 15.5C47.0711 15.5 48.75 13.8211 48.75 11.75C48.75 9.67895 47.0711 8 45 8C42.9289 8 41.25 9.67895 41.25 11.75C41.25 13.8211 42.9289 15.5 45 15.5ZM45 23C45 25.0711 43.3211 26.75 41.25 26.75C39.1789 26.75 37.5 25.0711 37.5 23C37.5 20.9289 39.1789 19.25 41.25 19.25C43.3211 19.25 45 20.9289 45 23ZM18.75 23C22.8921 23 26.25 19.6421 26.25 15.5C26.25 11.3579 22.8921 8 18.75 8C14.6079 8 11.25 11.3579 11.25 15.5C11.25 19.6421 14.6079 23 18.75 23Z" fill="#FFB032"/>
</g>
<defs>
<clipPath id="clip0_1096_10">
<rect width="60" height="46" fill="white"/>
</clipPath>
</defs>
</svg>
