<svg width="52" height="48" viewBox="0 0 52 48" fill="none" xmlns="http://www.w3.org/2000/svg">
<g clip-path="url(#clip0_1096_8)">
<path d="M49.4614 12.4804H16.4014C16.1614 12.4804 15.9514 12.4004 15.7714 12.2404C15.5914 12.0804 15.4814 11.8804 15.4414 11.6404L13.5214 1.80043C13.4414 1.24043 13.2014 0.79043 12.8014 0.45043C12.4014 0.11043 11.9214 -0.0595703 11.3614 -0.0595703H2.60141C2.00141 -0.0595703 1.49141 0.15043 1.07141 0.57043C0.651406 0.99043 0.441406 1.50043 0.441406 2.10043V2.40043C0.441406 3.00043 0.651406 3.52043 1.07141 3.96043C1.49141 4.40043 2.00141 4.62043 2.60141 4.62043H8.72141C8.88141 4.62043 9.02141 4.67043 9.14141 4.77043C9.26141 4.87043 9.34141 5.00043 9.38141 5.16043L15.5014 37.8004C15.6214 38.5604 16.0214 39.1204 16.7014 39.4804C17.0214 39.6804 17.3814 39.7804 17.7814 39.7804H18.8014C17.9214 40.7804 17.5014 41.9504 17.5414 43.2904C17.5814 44.6304 18.0814 45.7604 19.0414 46.6804C20.0014 47.6004 21.1514 48.0604 22.4914 48.0604C23.8314 48.0604 24.9914 47.6004 25.9714 46.6804C26.9514 45.7604 27.4614 44.6304 27.5014 43.2904C27.5414 41.9504 27.1014 40.7804 26.1814 39.7804H37.3414C36.4214 40.7804 35.9914 41.9504 36.0514 43.2904C36.1114 44.6304 36.6214 45.7604 37.5814 46.6804C38.5414 47.6004 39.6914 48.0604 41.0314 48.0604C42.3714 48.0604 43.5214 47.6004 44.4814 46.6804C45.4414 45.7604 45.9414 44.6304 45.9814 43.2904C46.0214 41.9504 45.6014 40.7804 44.7214 39.7804H45.7414C46.3414 39.7804 46.8514 39.5704 47.2714 39.1504C47.6914 38.7304 47.9014 38.2204 47.9014 37.6204V37.1404C47.9014 36.5404 47.6814 36.0304 47.2414 35.6104C46.8014 35.1904 46.2814 34.9804 45.6814 34.9804H20.5414C20.3014 34.9804 20.0914 34.9004 19.9114 34.7404C19.7314 34.5804 19.6214 34.4004 19.5814 34.2004L18.9814 30.9604C18.9414 30.6404 19.0214 30.3604 19.2214 30.1204C19.4214 29.8804 19.6614 29.7804 19.9414 29.8204H47.5414C48.0614 29.8204 48.5114 29.6604 48.8914 29.3404C49.2714 29.0204 49.5014 28.6004 49.5814 28.0804L51.5614 14.9404C51.6814 14.3004 51.5314 13.7304 51.1114 13.2304C50.6914 12.7304 50.1414 12.4804 49.4614 12.4804Z" fill="#FFB032"/>
</g>
<defs>
<clipPath id="clip0_1096_8">
<rect width="52" height="48" fill="white"/>
</clipPath>
</defs>
</svg>
